name processed_emg_signals
nRows=50
nColumns=7
 
endheader
time	LGLTMED	LRF	LADDLONG	LST	LTA	LGM
1.455	0.0221961955858102	0.0187201740613623	0.0419078934625549	0.0226078160016429	0.2373942296295878	0.0315225142332408
1.456	0.022198498363128	0.0186761824146181	0.0419092057758802	0.0225458028502222	0.2371176002585451	0.0315860593280799
1.457	0.0222016711736963	0.0186337581493459	0.0419017003515541	0.0224734954221791	0.2368469563025942	0.031636999076116
1.458	0.0222058067531847	0.0185928342019249	0.0418853201850326	0.0223907219403561	0.2365829808216434	0.0316756383859206
1.459	0.022210998266667	0.0185533446652624	0.0418600183769532	0.0222973219417094	0.2363263333889835	0.0317022895844999
1.46	0.0222173390755619	0.0185152248424699	0.041825758136682	0.0221931468480836	0.2360776486655686	0.0317172717272637
1.461	0.0222249225018084	0.0184784112964168	0.0417825127784758	0.022078060537656	0.2358375350056553	0.0317209099243588
1.462	0.0222338415893771	0.0184428418955711	0.0417302657102152	0.021951939916341	0.2356065730971041	0.0317135346838275
1.463	0.0222441888632483	0.0184084558565282	0.0416690104146918	0.0218146754883804	0.2353853146403288	0.0316954812720719
1.464	0.022256056086108	0.0183751937835953	0.041598750423373	0.0216661719253277	0.2351742810705328	0.0316670890920323
1.465	0.0222695340130588	0.0183429977057766	0.0415194992825251	0.0215063486325842	0.2349739623281893	0.0316287010794566
1.466	0.0222847121447145	0.0183118111114719	0.0414312805115636	0.0213351403126707	0.2347848156829013	0.0315806631175795
1.467	0.022301678479075	0.0182815789811648	0.0413341275534203	0.0211524975243549	0.2346072646156711	0.0315233234704576
1.468	0.0223205192626633	0.0182522478183504	0.0412280837166709	0.0209583872367831	0.2344416977644587	0.031457032235136
1.469	0.022341318741413	0.018223765678901	0.0411132021091477	0.0207527933777078	0.2342884679376222	0.0313821408127913
1.47	0.022364158911872	0.0181960821990374	0.0409895455627634	0.0205357173749184	0.2341478911994899	0.0312990013989198
1.471	0.0223891192732762	0.018169148622051	0.0408571865493802	0.0203071786899296	0.2340202460319251	0.0312079664926228
1.472	0.0224162765810915	0.0181429178238771	0.0407162070875663	0.0200672153429621	0.2339057725751801	0.0311093884249732
1.473	0.0224457046026227	0.0181173443376133	0.0405666986402339	0.0198158844282168	0.2338046719507032	0.0310036189064187
1.474	0.0224774738753157	0.018092384377031	0.0404087620031444	0.0195532626184039	0.2337171056678908	0.0308910085931334
1.475	0.0225116514683578	0.0180679958591146	0.0402425071843523	0.0192794466574896	0.2336431951160997	0.0307719066721911
1.476	0.0225483007481825	0.018044138425643	0.0400680532746882	0.0189945538405643	0.2335830211427125	0.0306466604654743
1.477	0.0225874811485278	0.0180207734637739	0.0398855283094425	0.0186987224797605	0.2335366237175261	0.0305156150521632
1.478	0.0226292479456249	0.0179978641255947	0.0396950691214377	0.0183921123550885	0.2335040016833835	0.0303791129096972
1.479	0.0226736520391214	0.0179753753465455	0.039496821185819	0.0180749051490578	0.2334851125926247	0.0302374935729813
1.48	0.0227207397392712	0.0179532738626136	0.0392909384568284	0.0177473048639453	0.2334798726288039	0.0300910933116751
1.481	0.022770552560912	0.017931528226224	0.0390775831969212	0.017409538220563	0.2334881566130014	0.0299402448252544
1.482	0.0228231270246613	0.0179101088207147	0.0388569257985581	0.0170618550374048	0.2335097980942152	0.0297852769556252
1.483	0.022878494465792	0.0178889878732968	0.0386291445990535	0.0167045285890827	0.2335445895234973	0.029626514416915
1.484	0.0229366808511657	0.0178681394663881	0.0383944256888094	0.0163378559430136	0.2335922825116103	0.0294642775421456
1.485	0.0229977066045806	0.0178475395471267	0.0381529627132419	0.0159621582733543	0.2336525881699581	0.0292988820463873
1.486	0.0230615864409092	0.0178271659349011	0.0379049566686491	0.0155777811512334	0.2337251775343267	0.029130638806014
1.487	0.0231283292093031	0.0178069983266821	0.0376506156921873	0.0151850948103037	0.2338096820706881	0.0289598536536663
1.488	0.0231979377457999	0.0177870182999994	0.03739015484613	0.0147844943866902	0.2339056942619349	0.0287868271885165
1.489	0.0232704087355858	0.017767209313452	0.0371237958965564	0.0143764001323968	0.2340127682741167	0.0286118546014774
1.49	0.023345732585267	0.0177475567046461	0.0368517670866586	0.0139612576012283	0.2341304207004383	0.0284352255150064
1.491	0.0234238933054728	0.0177280476855484	0.0365743029047644	0.0135395378063178	0.2342581313809267	0.0282572238372175
1.492	0.0235048684041609	0.0177086713352055	0.0362916438471797	0.0131117373483155	0.234395344295253	0.0280781276299413
1.493	0.0235886287909825	0.0176894185898288	0.0360040361758281	0.0126783785132844	0.2345414685257958	0.0278982089904119
1.494	0.0236751386930144	0.0176702822302741	0.035711731670628	0.0122400093393561	0.2346958792875749	0.0277177339461155
1.495	0.0237643555821435	0.0176512568669625	0.0354149873764575	0.0117972036511125	0.2348579190213094	0.0275369623623373
1.496	0.0238562301143223	0.0176323389223604	0.0351140653445316	0.011350561060736	0.2350268985455099	0.0273561478618699
1.497	0.0239507060808584	0.0176135266111432	0.034809232367948	0.010900706934872	0.2352020982632428	0.0271755377563376
1.498	0.0240477203718624	0.0175948199181586	0.0345007597111492	0.0104482923261989	0.2353827694188972	0.0269953729885711
1.499	0.0241472029518932	0.0175762205743361	0.034188922833054	0.0099939938686608	0.2355681354001295	0.0268158880854893
1.5	0.0242490768478416	0.0175577320306172	0.0338740011037013	0.0095385136353635	0.2357573930800259	0.0266373111209088
1.5010000000000001	0.0243532581490953	0.0175393594300242	0.0335562775143324	0.0090825789581515	0.2359497141945724	0.0264598636877073
1.502	0.0244596560199478	0.0175211095779566	0.0332360383810691	0.008626942207952	0.2361442467505954	0.0262837608787349
1.5030000000000001	0.0245681727242885	0.0175029909108495	0.0329135730425002	0.0081723805350294	0.236340116459165	0.026109211275894
1.504	0.0246787036624679	0.0174850134632625	0.0325891735516876	0.0077196955683607	0.2365364281891721	0.0259364169468115
